<svg width="30" height="30" viewBox="0 0 30 30" fill="none" xmlns="http://www.w3.org/2000/svg">
<path d="M17.2043 14.966L29.6393 2.56426C29.8851 2.27808 30.0135 1.90995 29.9989 1.53345C29.9843 1.15694 29.8278 0.79979 29.5607 0.533363C29.2935 0.266935 28.9354 0.110855 28.5579 0.096312C28.1804 0.0817692 27.8113 0.209836 27.5243 0.454918L15.0893 12.8567L2.65432 0.439958C2.37186 0.158258 1.98877 0 1.58932 0C1.18986 0 0.806771 0.158258 0.524315 0.439958C0.24186 0.721658 0.0831776 1.10373 0.0831776 1.50211C0.0831776 1.90049 0.24186 2.28256 0.524315 2.56426L12.9743 14.966L0.524315 27.3677C0.367293 27.5019 0.239762 27.6669 0.149727 27.8525C0.0596923 28.0381 0.00909703 28.2402 0.00111779 28.4463C-0.00686145 28.6523 0.0279467 28.8577 0.103359 29.0497C0.17877 29.2417 0.293158 29.416 0.43934 29.5618C0.585522 29.7076 0.760343 29.8217 0.952831 29.8969C1.14532 29.9721 1.35132 30.0068 1.5579 29.9989C1.76447 29.9909 1.96717 29.9405 2.15327 29.8507C2.33937 29.7609 2.50484 29.6337 2.63931 29.4771L15.0893 17.0753L27.5243 29.4771C27.8113 29.7222 28.1804 29.8502 28.5579 29.8357C28.9354 29.8211 29.2935 29.6651 29.5607 29.3986C29.8278 29.1322 29.9843 28.7751 29.9989 28.3986C30.0135 28.0221 29.8851 27.6539 29.6393 27.3677L17.2043 14.966Z" fill="black"/>
</svg>
